<?xml version="1.0" encoding="utf-8"?>
<!-- Generator: Adobe Illustrator 19.1.0, SVG Export Plug-In . SVG Version: 6.00 Build 0)  -->
<svg version="1.1" id="Layer_1" xmlns="http://www.w3.org/2000/svg" xmlns:xlink="http://www.w3.org/1999/xlink" x="0px" y="0px"
	 viewBox="-190 406.1 410.6 413.9" style="enable-background:new -190 406.1 410.6 413.9;" xml:space="preserve">
<style type="text/css">
	.st0{display:none;}
	.st1{display:inline;fill:none;stroke:#000000;stroke-miterlimit:10;}
	.st2{display:inline;fill:none;stroke:#000000;stroke-width:4;stroke-miterlimit:10;}
	.st3{display:inline;fill:none;stroke:#000000;stroke-width:10;stroke-miterlimit:10;}
	.st4{fill:#FCC741;}
	.st5{fill:none;stroke:#000000;stroke-width:10;stroke-miterlimit:10;}
	.st6{fill:#F8F7F7;stroke:#000000;stroke-width:7;stroke-miterlimit:10;}
	.st7{fill:#FCC741;stroke:#000000;stroke-width:6;stroke-miterlimit:10;}
	.st8{fill:none;stroke:#000000;stroke-width:2;stroke-miterlimit:10;}
	.st9{fill:none;stroke:#000000;stroke-width:4;stroke-miterlimit:10;}
	.st10{fill:#FFFFFF;}
	.st11{stroke:#000000;stroke-width:10;stroke-miterlimit:10;}
	.st12{enable-background:new    ;}
	.st13{fill:none;}
</style>
<g id="Layer_1_2_">
	<g id="Layer_1_1_" class="st0">
		<path class="st1" d="M-155.5,545.9c0.3,3.4,0.7,8.5,1.2,14.5c1.7,21.6,1.9,28.6-2.4,34.5c-1.4,2-2.1,2-3,3.9
			c-3.1,6.1-1.7,15.3,3.3,20.9c3.6,4,6.1,2.7,16.9,8.5c0,0,2.2,1.1,6.4,2.4c3.9,1.2,4.5,0.9,4.8,0.6c1.6-1.3,1.1-6-1.5-8.2
			c-1.3-1.1-2.1-0.6-5.1-1.5c-1.3-0.4-4.6-1.5-7.9-3.9c-1.3-1-3.6-3-5.4-6.1c-1.6-2.7-2.7-4.5-2.1-6.4c0.9-2.7,5-3.8,7.9-3.9
			c6.1-0.2,10.7,4.2,11.8,5.1c12.9,11.7,31.3,15.6,46.2,24.8c40.6,25,60.9,37.5,80.7,44.8c29.9,11.1,57.3,14.3,67.2,15.4
			c17.4,1.9,36.1,2.3,45.5,2.6c13.3,0.3,24.5,0.2,32.7,0l13.9-7.3l5.8-5.6c-0.7-0.4-1.8-1.2-2.9-2.3c-10.6-10.4-9.8-34.8,1.4-44.3
			c3-2.5,5-2.6,6.6-5.6c3.1-6-0.5-14.7-5.4-19.7c-4-4.1-10.2-6.9-11.8-5.4c-0.9,0.9-0.2,3.2,0.4,4.4c1.2,2.5,3.1,2.5,5,4.6
			c2.5,2.8,3.5,7.6,1.7,10.1c-1.4,2-4.5,2.1-6.6,2.1c-21.5,0.6-3.1,2.6-21.8,1.4c-13.8-1-20.7-1.4-26.1-2.3
			c-24.4-4-48.2-10.8-64.5-15.4c-41.2-11.6-35.6-9.2-54.9-15.1c-39.5-12.1-52.1-18.7-58.8-22.6c-18.5-10.6-24.6-15.1-24.6-15.1
			c-0.5-0.4-8.1-5.9-18.4-12.2c-5.8-3.5-10.2-5.9-16-5.9c-4.2,0-7.6,1.2-9.2,1.8C-149.9,541.2-153.5,544-155.5,545.9z"/>
		<path class="st2" d="M-134.8,634.1c-6.1-2.3-14.2,5.1-18.1,11c-1.5,2.2-6.3,9.7-3.5,14.5c2.4,4.1,10,5.6,15.3,6.7
			c2.7,0.5,5.1,0.8,7.5,2.7c0.6,0.5,3.9,3.4,3.5,6.3c-0.8,6.1-17.1,7.3-16.9,9.8c0.2,1.7,7.4,3,14.1,1.6c3.5-0.8,7.7-1.7,10.2-5.5
			c2.7-4.2,2.4-10-0.4-13.7c-2.2-2.9-5.5-4-7.8-4.7c-5.9-1.8-8.1,0.3-11.4-2c-2.6-1.8-4.2-5.3-3.9-8.6c0.5-5.3,5.7-8,6.3-8.2
			c4.9-2.4,9.1,0,10.2-2C-128.6,640.1-131.1,635.4-134.8,634.1z"/>
		<path class="st2" d="M150.9,596.8c2,2.2,6,5.8,11.8,6.7c2.1,0.3,4.3,0.3,4.3,0.3c1.4-0.1,2.1-0.3,2.4-0.4c0.4-0.2,2-0.7,2.8-1.8
			c1.2-1.9-0.4-4.8-1.2-6.3c-2.3-4.5-6-6.7-6.7-7.1c-6.4-3.7-10.8-0.8-14.5-4.7c-1.6-1.6-2.8-4.3-2-5.5c2-2.8,14.9,3.7,16.1,4.3
			c6.1,3.1,8.5,5.6,9.4,6.7c1.9,2.1,3.9,4.1,4.3,7.1c0.5,3.6-1.4,6.5-2,7.5c-7.3,12.4,6.9,40.6,0,44.7c-1.6,0.9-4,0.5-6.7,0
			c-3.5-0.7-6-2.2-7.5-3.1c-1.9-1.2-3.4-2.5-4.3-3.5"/>
		<path class="st2" d="M-159.5,663c3.1-1.1,7.8-2.3,13.5-1.8c9.1,0.7,15.4,5.3,19.3,8.1c10.8,7.5,23.3,12.4,34.6,19.3
			c0,0,11.5,7,35.9,21.5c37.7,22.4,73.8,32.7,82.1,35c19.1,5.2,42.4,11.5,73.6,10.8c22.3-0.5,40.6-4.5,53.4-8.1"/>
		<path class="st2" d="M-17.6,837.8c-0.2-14.2-2.3-37.1-13-62.8c-12-28.8-29.2-47.7-39.9-57.9"/>
	</g>
	<g id="yellow">
		<polygon class="st4" points="173.7,545.7 180,546.1 186.6,549.3 190.6,555.4 192.6,559.7 194,564.9 193.6,571.1 190.6,573.3 
			182.6,571.8 178.6,568.5 172.9,565.3 		"/>
		<polyline class="st4" points="-140.3,594.8 -136.6,594.1 -133.6,600.6 -129.2,609.5 -129.2,614.7 -133.6,615.3 -139.8,614.5 
			-144.8,613.6 -147.5,610.2 -148.8,605.9 -145,598.2 -140.3,594.8 -136.6,594.1 		"/>
		<polyline class="st4" points="-141.4,556.7 -139.6,556.3 -139.1,573.3 -142.7,570.6 -145.6,567.1 -148,562.7 -146.3,558.2 
			-141.4,556.7 -139.6,556.3 		"/>
	</g>
	<g id="Layer_3">
		<path class="st5" d="M17.9,419.1c-7.7-1.7-18.2-3.1-30.5-2.2c-52.8,3.9-97.9,48.5-114.9,92.9c-22.5,58.8-1.2,131.1,54.3,178.6"/>
		<path class="st5" d="M-73.5,688.2c10.7,10.1,28,29.1,39.9,57.9c10.7,25.7,12.8,48.6,13,62.8"/>
		<path class="st5" d="M16,420c7.7-1.7,18.2-3.1,30.5-2.2c52.8,3.9,97.9,48.5,114.9,92.9c22.5,58.8,1.2,131.1-54.3,178.6"/>
		<path class="st5" d="M109.3,687.9c-10.7,10.1-28,29.1-39.9,57.9c-10.7,25.7-12.8,48.6-13,62.8l0,0l-78.1,0.6l-0.6-21.4l79.3,0.4"
			/>
		<path d="M52.8,788.9c-4.6-0.1-9.1,1.1-13.6,2.1c-0.2-0.7-0.7-1.4-1.7-1.5c-5.7-1-11.3-0.9-16.8,0.3c-0.8-0.6-1.9-0.9-2.8-0.3
			c-1.4,0.9-2.6,1.5-4.2,1.8c-0.3,0.1-0.5,0.1-0.7,0.3c-10-1.6-20.1-2.7-30.3-1.2c-1.1,0.2-1.7,1.4-1.8,2.4
			c-0.4,4.3-0.5,11.1,3.3,14.2c3.4,2.7,7.5,1,10.7-1.1c0.8,0,1.5-0.2,2.3-0.5c1.5,0.5,3.1,0.8,4.7,1c0.7,0.7,1.8,0.9,2.9,0.3
			l0.3-0.1c4.7,0.1,9.5-0.5,13.2-0.7c0.5,0,1-0.2,1.3-0.5c0.6,0.3,1.3,0.5,2.1,0.5c0.6,0.1,1-0.1,1.4-0.4c1.5,0,3,0.1,4.4,0.1
			c0.4,0.3,0.8,0.5,1.4,0.5c0.2,0,0.5,0,0.7,0c0.4,0.5,1,0.9,1.8,1c1.6,0.2,2.9,0.5,4.4,0.1c0.1,0,0.3-0.1,0.4-0.1
			c0.2,0,0.4,0,0.6,0c1,0,1.7-0.6,2.1-1.3c0.9-0.4,1.9-0.5,3.6,0.2c0.7,0.3,1.3,0.2,1.8-0.2c1.2,0.5,2.7,0.1,3.3-1.4
			c0.1-0.1,0.3-0.1,0.4-0.2c0,0.1,0.1,0.1,0.1,0.2c0.6,1.1,2.1,1.4,3.2,1c0.1,0,0.2,0,0.4,0c1,1.6,3.9,1.8,4.6-0.6
			C57.5,800.4,59.8,789,52.8,788.9z M-1.5,794.7c-0.7,0.1-1.4,0.3-2.1,0.4c0-0.2,0-0.4,0-0.6c0.7,0,1.5,0.1,2.2,0.1
			C-1.4,794.7-1.5,794.7-1.5,794.7z"/>
	</g>
	<g id="Layer_4">
		<path class="st5" d="M20.7,419.7c-33.3,19.2-50.7,41.5-60.3,57.6c-38.4,64.5-17.1,142.5,4.4,221.5c12.1,44.3,26.7,79.8,38.1,104.6
			"/>
		<path class="st5" d="M20.2,418.2c32.3,18,49.4,39.1,58.8,54.4c37.7,61.2,18,135.9-2,211.7c-11.2,42.4-24.9,76.5-35.7,100.3"/>
		<path class="st5" d="M36.2,420.9c41.4,16.6,63.1,35.9,75,49.8c47.7,55.7,21.3,123.1-5.5,191.3c-15,38.2-33.2,69-47.4,90.3"/>
		<path class="st5" d="M7.6,419.8c-45.4,16.8-69.3,36.3-82.4,50.3c-52.5,56.4-23.5,124.7,5.8,194c16.4,38.8,36.4,69.9,51.9,91.6"/>
		<path class="st5" d="M23,424.8C7.8,444.1-0.1,466.3-4.5,482.4c-17.5,64.5-7.8,142.5,2,221.5C3,748.2,9.7,783.7,14.9,808.5"/>
		<path class="st5" d="M19.2,420.9c13.2,19.3,20.1,41.5,23.9,57.6C58.3,543,49.9,621,41.3,700c-4.8,44.3-10.6,79.8-15.1,104.6"/>
		<line class="st5" x1="-21.8" y1="791.5" x2="59.6" y2="791.5"/>
		<path d="M-15.7,758.8c-3.8-1.1-6.7-4.1-7.8-8c-0.8-3.1-5.7-1.8-4.8,1.3c1.5,5.5,5.8,9.9,11.3,11.5
			C-14,764.5-12.7,759.7-15.7,758.8z"/>
		<path d="M81.5,717.3c-0.7-1.4-2.6-2.3-4-0.9c-0.8,0.9-1.7,1.7-2.5,2.6c-4.3,2.2-8,5.3-10.9,9.4c-0.9,1.3-0.3,2.6,0.7,3.2
			c-0.2,0.4-0.5,0.8-0.7,1.1c-1.7,2.7,2.6,5.3,4.3,2.5c2.8-4.5,6.1-8.6,9.9-12.3c0.9-0.4,1.8-0.7,2.8-1
			C83.3,721.2,83.1,718.2,81.5,717.3z"/>
		<polygon class="st6" points="-28.6,746.8 61.2,747.9 53.3,783.1 -18.6,783.6 		"/>
	</g>
	<g id="Layer_6">
		<path class="st7" d="M178.9,565c3.1,0.7,6.2,0.9,6.2,0.9c2.2,0.1,3.2-0.1,3.6-0.2c0.7-0.1,3.1-0.6,4.3-1.9c2-2.2-0.1-6.1-1-8
			c-2.9-5.9-8.2-9.2-9-9.8c-9.1-5.5-16-2.5-20.9-7.9c-2.2-2.3-3.7-5.8-2.3-7.2c3.3-3.2,21.6,6.7,23.3,7.6c8.7,4.7,11.9,8.2,13.1,9.7
			c2.5,2.9,5.2,5.7,5.5,9.5c0.3,4.5-2.9,8-3.8,9.1c-12.3,14.6,5.3,51.9-5.3,56.2c-2.5,1-5.9,0.1-9.8-0.9c-5.1-1.3-8.6-3.6-10.7-5
			c-2.7-1.8-4.7-3.6-5.9-5"/>
	</g>
	<g id="Layer_8">
		<path class="st5" d="M16,420c7.7-1.7,18.2-3.1,30.5-2.2c52.8,3.9,97.9,48.5,114.9,92.9c22.5,58.8,1.2,131.1-54.3,178.6"/>
	</g>
	<g id="Layer_2">
		<path class="st7" d="M-151.9,501c0.3,3.6,0.8,8.8,1.3,15.2c1.8,22.6,2,29.9-2.5,36.1c-1.5,2.1-2.1,2.1-3.2,4.1
			c-3.3,6.4-1.8,16,3.5,21.8c3.8,4.2,6.4,2.8,17.7,8.9c0,0,2.3,1.2,6.6,2.5c4.1,1.2,4.8,0.9,5.1,0.6c1.7-1.4,1.1-6.3-1.6-8.5
			c-1.4-1.1-2.2-0.6-5.4-1.6c-1.4-0.4-4.8-1.5-8.2-4.1c-1.4-1-3.7-3.1-5.7-6.3c-1.7-2.8-2.8-4.7-2.2-6.6c0.9-2.9,5.3-4,8.2-4.1
			c6.3-0.2,11.2,4.4,12.3,5.4c13.5,12.3,32.7,16.3,48.3,25.9c42.5,26.1,63.7,39.2,84.4,46.9c31.2,11.6,59.9,14.9,70.3,16.1
			c18.2,2,37.7,2.5,47.6,2.7c13.9,0.3,25.6,0.2,34.2,0l14.6-7.7l6.1-5.9c-0.7-0.5-1.8-1.3-3-2.4c-11.1-10.9-10.2-36.4,1.4-46.3
			c3.1-2.6,5.3-2.7,6.9-5.9c3.2-6.3-0.5-15.4-5.7-20.6c-4.2-4.3-10.7-7.2-12.3-5.7c-1,0.9-0.2,3.4,0.4,4.7c1.3,2.6,3.3,2.6,5.3,4.9
			c2.6,2.9,3.6,8,1.8,10.5c-1.5,2.1-4.7,2.2-6.9,2.2c-22.5,0.6-3.3,2.8-22.8,1.4c-14.5-1-21.7-1.5-27.3-2.4
			c-25.5-4.2-50.4-11.3-67.5-16.2c-43.1-12.1-37.3-9.7-57.5-15.8c-41.3-12.7-54.5-19.6-61.5-23.6c-19.3-11.3-25.8-16-25.8-16
			c-0.6-0.4-8.4-6.1-19.3-12.7c-6.1-3.7-10.6-6.2-16.8-6.2c-4.4,0-8,1.3-9.6,1.9c-1.6,0.6-5,2-8.8,4.8
			C-150.5,499.7-151.3,500.5-151.9,501z"/>
		<path class="st8" d="M149.6,586.9c0.1,0.9,9.6,1.6,18.5-1.1c1.7-0.5,6.5-2.1,6.2-2.7C173.9,581.7,149.4,585.5,149.6,586.9z"/>
		<path class="st9" d="M172.3,631.5c0,0,4.7,14.7-4.7,18.2c-9.4,3.5-6.8,5.3-6.8,5.3"/>
	</g>
	<g id="white">
		<polygon class="st10" points="160.7,526.8 164.5,543.5 156.7,543.6 154,526.5 		"/>
		<polygon class="st10" points="165,566.8 162.1,566.5 163,556.2 165.3,556.8 165.1,566.6 		"/>
		<polygon class="st10" points="-126.3,597.1 -119.9,596.4 -119.9,590 -118.3,584.6 -120.6,578.5 -126.9,574.7 -130.5,574.9 		"/>
		<polygon class="st10" points="-113.6,629.7 -111.9,628.5 -118.4,617.2 -119.2,617.6 		"/>
		<polygon class="st10" points="153.2,580.5 163.8,579.9 163.9,578.8 163.2,577.8 153.3,579.7 		"/>
		<polygon class="st10" points="164,578.8 163.8,579.9 163.4,579.6 163.8,578.5 		"/>
		<path class="st10" d="M174.8,626.3c0,0,7,20.8-5.3,27.2c-12.2,6.5,20.4-7,20.4-7L174.8,626.3z"/>
	</g>
	<g id="Layer_10">
		<path class="st11" d="M-137.1,568.5l7.2,34.1L-137.1,568.5z"/>
		<path class="st11" d="M170.1,552.8c0.1,5.2,0.1,10.5,0.2,15.7"/>
	</g>
</g>
<g id="Layer_2_1_">
	<g id="Layer_7">
		<path class="st7" d="M-136,585.4c-7.2-2.5-16.7,5.7-21.2,12.2c-1.7,2.5-7.4,10.8-4.2,16.1c2.8,4.6,11.7,6.2,18,7.4
			c3.2,0.6,6,0.9,8.8,3.1c0.7,0.5,4.6,3.8,4.2,7c-0.9,6.8-20.1,8.1-19.9,10.9c0.2,1.8,8.8,3.4,16.6,1.7c4.1-0.8,9-1.9,12-6.1
			c3.2-4.6,2.8-11.1-0.5-15.3c-2.6-3.3-6.4-4.4-9.2-5.2c-7-2-9.6,0.3-13.4-2.2c-3.1-2-5-5.9-4.6-9.6c0.6-5.9,6.7-8.8,7.4-9.2
			c5.8-2.7,10.7,0,12-2.2C-128.8,592-131.7,586.9-136,585.4z"/>
	</g>
</g>
<g id="Layer_3_1_">
	<rect x="116" y="624.2" class="st13" width="176" height="54"/>
	<g class="st12">
		<path d="M122.4,637.4c0.4,0,0.6,0.3,0.6,0.9c0,0.2-0.1,0.5-0.2,0.9s-0.3,1.1-0.4,1.9c-0.4,1.8-0.8,3.1-1.2,3.9
			c-0.8,2-1.7,2.9-2.7,2.9c-1.9,0-2.9-1.7-2.9-5c0-1.5,0.2-3,0.6-4.7c0.6-2.1,1.3-3.1,2.2-3.1c0.4,0,0.8,0.3,1.2,0.8
			c0.4,0.5,0.6,1,0.6,1.4c0,0.8-0.3,1.2-0.9,1.2c-0.4,0-0.7-0.2-1.1-0.5c-0.7,1.2-1.1,3.2-1.1,6.1c0,1.5,0.3,2.2,0.9,2.2
			c1,0,2.1-2.3,3.1-6.9c0-0.1,0.1-0.3,0.1-0.6c0-0.2,0.1-0.5,0.2-0.8h0C121.9,637.7,122.1,637.4,122.4,637.4z"/>
		<path d="M126.5,647.9c-0.8,0-1.5-0.4-2-1.3c-0.2-0.4-0.3-1.1-0.4-2.2c0-0.3,0-0.5,0-0.7c0-0.2,0-0.4,0-0.6c0-0.2,0-0.4,0-0.7
			c0-0.3,0-0.7,0-1.1l0.1-2.7c0-0.3-0.3-0.6-1-1.1c-0.2,1-0.4,2-0.8,3.1v-0.1c0,0-0.1,0.2-0.2,0.6c0,0-0.1,0.2-0.2,0.5l-0.9-0.3
			c0-0.5,0.1-1.3,0.4-2.4c0.1-0.5,0.2-1,0.3-1.4c0.1-0.4,0.1-0.7,0.1-1c0-0.2-0.1-0.5-0.3-1.1c-0.2-0.5-0.2-0.9-0.2-1.2
			c0-1.3,0.4-2,1.1-2c0.7,0,1,0.5,1,1.4v0.2c0,0.4,0,0.6,0,0.7v0.1l-0.1,1c0,0,0.4,0.3,1.2,0.8c1,0.6,1.5,1.3,1.5,2
			c0,0.4,0,0.8-0.1,1.4c0,0.5-0.1,1.2-0.2,1.9c-0.1,0.7-0.2,1.4-0.2,1.9c0,0.5-0.1,1-0.1,1.4c0,0.8,0.2,1.3,0.6,1.3
			c0.2,0,0.7-1.2,1.5-3.5c0.4-1.1,0.6-2.1,0.8-2.8c0.2-0.7,0.3-1.3,0.4-1.8c0.1-0.7,0.4-1.1,0.8-1.1c0.4,0,0.6,0.3,0.6,0.8
			c0,0.9-0.4,2.6-1.3,5.2C128.1,646.4,127.2,647.9,126.5,647.9z"/>
		<path d="M136.4,638.2c0,0.3-0.2,1.1-0.5,2.3c-0.5,2.3-1,3.8-1.3,4.7c-0.9,2.1-1.9,3.2-3.1,3.2c-1.1,0-1.9-0.5-2.5-1.6
			c-0.4-0.9-0.7-1.9-0.7-3.1c0-0.7,0-1.5,0.1-2.3c0.1-0.8,0.1-1.6,0.3-2.3c0.4-2.6,1.1-3.9,2.1-3.9c0.6,0,1.1,0.2,1.5,0.6
			c0.4,0.4,0.7,0.9,0.7,1.4c0,1.7-0.5,3.5-1.4,5.7c-0.2,0.5-0.5,1-0.7,1.4s-0.4,0.8-0.6,1.1c0,0.3,0.2,0.7,0.5,1
			c0.3,0.4,0.5,0.6,0.8,0.6c0.8,0,1.9-2.5,3.2-7.4c0.4-1.4,0.7-2.1,0.9-2.1C136.2,637.4,136.4,637.7,136.4,638.2z M131.5,637.5
			c0-0.5,0-0.8-0.1-0.8c0,0-0.1,0.1-0.1,0.2c-0.7,2.1-1.1,4.1-1.2,6.1c0.1-0.3,0.3-0.6,0.4-0.9c0.1-0.4,0.3-0.8,0.4-1.2
			C131.3,639.4,131.5,638.3,131.5,637.5z"/>
		<path d="M140.3,647.9c-0.8,0-1.4-0.6-2-1.7c-0.6,1.5-1.3,2.3-2.2,2.3c-1.4,0-2.1-1.6-2.1-4.7v-0.5c0-1,0.2-2.5,0.7-4.4
			c0.7-2.5,1.3-3.7,1.9-3.7c1.1,0,1.8,0.3,2.1,1l0.5,1.1l1.3,0.4c-0.8,2.5-1.2,4.5-1.2,6.2v0.3c0,1.4,0.2,2.1,0.6,2.1
			c0.6,0,1.5-2.6,2.7-7.9c0.2-0.7,0.5-1,0.8-1c0.4,0,0.6,0.3,0.6,0.8c0,0.7-0.4,2.5-1.2,5.1C142,646.4,141.1,647.9,140.3,647.9z
			 M138.3,638.9l-0.4-0.5c-0.1-0.9-0.3-1.3-0.5-1.3c-0.2,0-0.4,0.5-0.7,1.4l-0.1,0.2c0,0.1-0.1,0.4-0.2,0.7
			c-0.1,0.4-0.2,0.8-0.4,1.4c-0.4,1.3-0.5,2.9-0.5,4.9c0,0.8,0.2,1.3,0.6,1.4c0.3-0.3,0.7-1.1,1.1-2.5c0.2-0.6,0.3-1.1,0.5-1.6
			c0.1-0.5,0.2-0.8,0.2-1.2L138.3,638.9z"/>
		<path d="M153.1,631.5c-0.2,0.2-0.8,0.4-1.9,0.6c-1,0.2-1.6,0.2-2,0.2c-0.5,0-1.1,0-1.5,0c-0.5,0-1,0-1.4,0l-1.3,0
			c-0.3,1.8-0.4,3.3-0.6,4.7c-0.1,1.3-0.2,2.4-0.2,3.3c0,1,0,1.8,0,2.4c0,0.6,0,1.1,0.1,1.4c0.1,1.2,0.3,1.8,0.6,1.8
			c0.7,0,1.6-2.3,2.6-6.8c0.3-1.2,0.6-1.8,0.9-1.8c0.4,0,0.7,0.3,0.7,0.9c0,0.9-0.4,2.5-1.2,4.9c-1,3.1-2,4.7-3.1,4.7
			c-1,0-1.6-0.9-2.1-2.6c-0.2-0.9-0.4-2-0.4-3.2c0-0.4,0.1-1.4,0.2-3c0.1-1.6,0.3-3.8,0.6-6.6c-0.2,0-0.5,0-0.9,0
			c-0.5,0-1.1,0-1.9,0l-1,0.3c-0.2-0.3-0.5-0.4-0.7-0.6c-0.4-0.1-0.6-0.4-0.6-0.7c0-0.4,0.2-0.6,0.7-0.6c0.6,0,1.3,0,2.1,0
			c0.7,0,1.6-0.1,2.4-0.1v0c0,0.1,0,0,0-0.4c0-0.3,0-0.9,0.1-1.8l-0.1-0.7c0.1-0.4,0.4-0.6,0.7-0.6c0.3,0,0.9,0.3,1.7,0.8v0.9
			c0,0.2-0.1,0.4-0.1,0.7c-0.1,0.3-0.1,0.6-0.2,1h0.7c0.4,0,0.8,0,1.2,0s0.7,0,0.9,0c0.1,0,0.6,0,1.5,0.1c0.8,0,2,0,3.6,0.1v0.6
			L153.1,631.5z"/>
		<path d="M153.1,638.1c0,0.6-0.4,2.2-1.1,4.8c-0.5,1.8-0.9,2.9-1,3.4c-0.5,1.1-1.1,1.7-1.8,1.7c-1.4,0-2-1.2-2-3.7
			c0-0.8,0.1-2.1,0.2-3.8c0.1-1.7,0.2-2.9,0.2-3.8c0.3-0.3,0.6-0.5,0.9-0.5c0.7,0,1.1,0.3,1.1,0.8l-0.4,2.1c-0.2,1-0.3,2-0.4,2.8
			c-0.1,0.9-0.2,1.6-0.2,2.4c0,1.3,0.2,1.9,0.6,1.9c0.2,0,0.5-0.5,0.8-1.6l1-3.4c0.2-0.8,0.5-1.8,0.7-3c0.2-0.7,0.4-1.1,0.8-1.1
			C152.9,637.2,153.1,637.5,153.1,638.1z M150.5,629.1c0,1.1-0.4,1.6-1.1,1.6c-0.4,0-0.8-0.2-1.1-0.5c-0.3-0.4-0.5-0.8-0.5-1.2
			c0-0.3,0.1-0.6,0.4-0.9c0.3-0.3,0.6-0.5,0.9-0.5C150.1,627.6,150.5,628.1,150.5,629.1z"/>
		<path d="M157.3,638.1c0,1.2-0.3,2.9-0.8,5.3c-0.7,2.8-1.5,4.2-2.5,4.2c-1.4,0-2.2-2-2.2-6.1c0-0.2,0-0.4,0-0.7c0-0.3,0-0.6,0-1
			c0-0.4,0-0.7,0-0.9c0-0.3,0-0.5,0-0.7c0-0.2-0.1-0.4-0.1-0.4c0-0.5,0.2-0.7,0.7-0.6c0.8,0,1.3,0.5,1.3,1.4c0,0.2,0,0.4,0,0.7
			c0,0.3-0.1,0.6-0.1,1c0,0.4-0.1,0.7-0.1,1c0,0.3,0,0.5,0,0.7c0,2.5,0.2,3.8,0.6,3.8c0.1,0,0.4-0.8,0.9-2.5
			c0.5-1.8,0.8-3.3,0.8-4.3v-2.3c-0.1-0.4-0.1-0.7-0.2-0.9l0.4-0.1h-0.4c0-0.4,0.2-0.6,0.5-0.6C156.9,635,157.3,636,157.3,638.1z"/>
		<path d="M166.4,638.2c0,0.3-0.2,1.1-0.5,2.3c-0.5,2.3-1,3.8-1.3,4.7c-0.9,2.1-1.9,3.2-3.1,3.2c-1.1,0-1.9-0.5-2.5-1.6
			c-0.4-0.9-0.7-1.9-0.7-3.1c0-0.7,0-1.5,0.1-2.3c0.1-0.8,0.1-1.6,0.3-2.3c0.4-2.6,1.1-3.9,2.1-3.9c0.6,0,1.1,0.2,1.5,0.6
			c0.4,0.4,0.7,0.9,0.7,1.4c0,1.7-0.5,3.5-1.4,5.7c-0.2,0.5-0.5,1-0.7,1.4s-0.4,0.8-0.6,1.1c0,0.3,0.2,0.7,0.5,1
			c0.3,0.4,0.5,0.6,0.8,0.6c0.8,0,1.9-2.5,3.2-7.4c0.4-1.4,0.7-2.1,0.9-2.1C166.1,637.4,166.4,637.7,166.4,638.2z M161.5,637.5
			c0-0.5,0-0.8-0.1-0.8c0,0-0.1,0.1-0.1,0.2c-0.7,2.1-1.1,4.1-1.2,6.1c0.1-0.3,0.3-0.6,0.4-0.9c0.1-0.4,0.3-0.8,0.4-1.2
			C161.3,639.4,161.5,638.3,161.5,637.5z"/>
	</g>
	<g class="st12">
		<path d="M-29.7,572.5c-0.2,0.5-0.8,1.6-2,3.4c-0.2,0.3-0.5,0.9-1.1,1.7c-0.5,0.8-1.2,1.9-2.1,3.2c-1,1.5-2,2.5-3.2,3.1l0.1,0
			c-0.7,0.3-1.4,0.4-2.1,0.4c-0.5,4.2-1.1,7.5-1.9,10c-1.7,5.1-3.5,8.5-5.4,10.2c-0.4,0.4-1.1,0.4-1.9,0.1c-2.9-1-3.2-4.8-0.9-11.5
			l0.2-0.7c2.2-6.6,4.9-13.4,7.9-20.5c3-7.1,6.5-14.6,10.4-22.4c0.6-0.3,1.4-0.3,2.3,0.1c0.7,0.2,1.3,0.9,1.8,1.8
			c-1.4,1-2.6,2.5-3.6,4.4c-2.2,4-4.1,7.8-5.8,11.2c-1.7,3.5-3.1,6.6-4.3,9.6c0.6,0.5,1.1,1.3,1.2,2.4l-0.1,0c0,0.1,0,0.3,0,0.8
			c0,0.4,0,1.1,0.1,1.9c0.7,0.2,1.8-0.6,3.2-2.4l0,0.1c0.5-0.6,1.2-1.6,2.1-2.9c0.9-1.3,1.9-3,3.2-5l0,0.1c0.4-0.7,0.9-1,1.4-0.8
			C-29.6,571-29.4,571.6-29.7,572.5z M-44.6,594.7c1.5-4.3,2.2-7.9,2.1-11c-0.1-0.1-0.3-0.3-0.4-0.5c-0.1-0.2-0.3-0.5-0.5-0.9
			c-1,2.5-1.9,4.6-2.6,6.5c-0.7,1.9-1.3,3.4-1.7,4.7c-0.2,0.6-0.4,1.3-0.6,2.2c-0.2,0.8-0.4,1.7-0.6,2.7l0-0.1
			c-0.4,2.5-0.4,3.8,0,3.9c0.3,0.1,1.1-0.9,2.3-3C-45.7,597.3-45,595.8-44.6,594.7z"/>
		<path d="M-23.3,574.9c-0.3,1-1.8,3.3-4.3,6.9c-1.8,2.5-2.9,4.1-3.4,4.7c-1.3,1.5-2.6,2.1-3.7,1.7c-2.1-0.7-2.5-3-1.2-6.9
			c0.4-1.3,1.2-3.3,2.3-5.8c1.1-2.6,1.9-4.5,2.3-5.8c0.6-0.3,1.2-0.4,1.7-0.2c1.2,0.4,1.6,1,1.3,1.9l-1.8,3
			c-0.8,1.5-1.6,2.9-2.2,4.2c-0.6,1.3-1.1,2.5-1.5,3.6c-0.7,2-0.7,3.1-0.1,3.3c0.4,0.1,1.1-0.6,2.2-2l3.3-4.7
			c0.7-1.1,1.7-2.5,2.7-4.3c0.6-1,1.2-1.5,1.8-1.3C-23.1,573.5-23,574-23.3,574.9z M-22.6,559.5c-0.6,1.7-1.4,2.3-2.6,1.9
			c-0.7-0.2-1.1-0.7-1.4-1.4c-0.3-0.7-0.3-1.5-0.1-2.1c0.2-0.5,0.6-0.9,1.2-1.2c0.6-0.4,1.2-0.5,1.6-0.3
			C-22.5,556.8-22.1,557.8-22.6,559.5z"/>
		<path d="M-18.6,599.5c-0.4-0.1-1-0.6-1.8-1.3c-2.5-0.8-3.8-1.3-3.8-1.5c-0.1,0.2-0.2,0.5-0.3,0.9c-0.1,0.4-0.2,0.8-0.4,1.2
			c-0.1,0.4-0.3,0.8-0.4,1.2c-0.1,0.4-0.2,0.7-0.3,0.9c-1.2,3.6-2.5,6.2-3.9,7.7c-2,2.3-4.7,2.9-7.8,1.8c-2.2-0.7-4-2.3-5.3-4.7
			l0,0.1c-1.3-2.3-1.5-4.6-0.7-7.1c1.1-3.3,5.3-5,12.7-5.1c0.3,0,0.8,0,1.5,0.1c0.7,0,1.6,0.1,2.8,0.2c0-0.2,0.1-0.6,0.2-1
			c0.1-0.4,0.2-0.9,0.4-1.6c0.1-0.4,0.2-0.8,0.3-1.2c-1.4,1.2-2.5,1.7-3.4,1.4c-1.4-0.5-2.2-1.5-2.3-3.2c-0.2-1.3,0-2.7,0.5-4.3
			c0.8-2.5,2.4-5.5,4.8-9.2c2.7-4.1,4.7-5.9,5.9-5.5c0.9,0.3,1.7,1.5,2.5,3.5l0-0.1c0.7,1.9,1.6,3.3,2.7,4c-3.2,2.9-5.6,7-7.4,12.1
			c-0.4,1.2-0.9,3-1.4,5.3c1.9,0.4,3.6,0.8,5.1,1.4c1.9,0.6,2.6,1.6,2.2,2.9C-16.7,599.6-17.5,599.9-18.6,599.5z M-28.2,600.6
			c0.1-0.3,0.3-0.8,0.5-1.5c0.2-0.7,0.4-1.5,0.7-2.5c-1.9-0.6-3.4-0.9-4.6-0.8c-5.3,0.4-8.4,1.9-9.3,4.4c-0.5,1.5-0.3,3,0.6,4.5
			c0.8,1.5,2,2.5,3.4,3C-33.1,609-30.2,606.6-28.2,600.6z M-19.5,576.8c0.7-2,0.3-3.2-1.2-3.7c-0.2,0.3-1.2,1.6-2.9,4.2
			c-2.2,3.3-3.8,6.2-4.6,8.8c-0.7,1.9-0.7,3-0.2,3.2c0.9,0.3,2.6-1.4,5-5.2C-21.4,580.9-20.1,578.4-19.5,576.8z"/>
		<path d="M-1.1,590.4c-0.8,1.2-1.5,2.2-2,3c-0.5,0.8-1,1.3-1.3,1.7c-1.3,1.5-2.5,2-3.6,1.6c-2.4-0.8-3-3.4-1.7-7.7
			c0.2-0.5,0.4-1.2,0.7-2.1c0.3-0.9,0.7-2.1,1.1-3.5c-0.7,1.1-1.6,2.6-2.8,4.5c-1.2,1.9-2.6,4.3-4.3,7c-0.5,0.1-0.9,0.1-1.3,0
			c-1.7-0.6-1.6-3.9,0.5-9.9c1-2.9,2.8-7.1,5.6-12.6c1.4-2.8,2.6-5.2,3.5-7.3c0.9-2.1,1.7-3.9,2.2-5.4c0.1-0.2,0.1-0.4,0.2-0.7
			c0.1-0.3,0.1-0.6,0.2-0.9c0.7-0.7,1.5-0.9,2.5-0.6l0.2,0.1c1,0.3,1.4,1,1,2c-0.2,0.5-0.6,1.3-1.3,2.3l0-0.1
			c-0.3,0.4-0.5,0.8-0.7,1.1c-0.2,0.3-0.3,0.6-0.5,0.8c-2.6,5.1-4.8,9.4-6.5,13.1c-1.7,3.7-3,6.7-3.8,9.1l-0.9-0.3
			c0.6,0.2,0.9,0.6,0.7,1.2c0,0.3-0.1,0.8-0.4,1.6c2.7-3.7,5.4-8,8.1-12.8c0.6-1.2,1.4-1.6,2.2-1.3c0.5,0.2,1.2,1.1,2.2,2.7
			c-2.7,4.9-4.7,9-5.8,12.4c-0.9,2.5-0.9,3.9-0.2,4.2c0.7,0.2,2.4-1.7,5.2-5.9c0.5-0.8,1-1.5,1.5-2.2c0.5-0.7,0.9-1.4,1.4-2.2
			c0.6-1,1.2-1.4,1.7-1.2c0.7,0.2,0.9,0.7,0.6,1.5C3,584.1,1.6,586.3-1.1,590.4z"/>
		<path d="M20.6,578.4c-0.4,0.2-1.5,0.2-3.3-0.1c-1.6-0.3-2.7-0.5-3.2-0.7c-0.8-0.3-1.6-0.6-2.4-0.8c-0.8-0.3-1.5-0.5-2.2-0.8
			l-2.1-0.8c-1.4,2.6-2.5,5-3.4,7c-0.9,2-1.6,3.7-2.1,5.1c-0.5,1.5-0.9,2.8-1.3,3.8c-0.3,1-0.5,1.7-0.7,2.2
			c-0.4,1.9-0.4,2.9,0.1,3.1c1.1,0.4,3.7-2.7,7.7-9.2c1.1-1.8,1.9-2.5,2.4-2.4c0.7,0.2,0.9,0.8,0.6,1.7c-0.5,1.4-1.9,3.7-4.5,7
			c-3.2,4.3-5.7,6.2-7.3,5.7c-1.5-0.5-2.1-2.2-1.9-5.1c0.1-1.6,0.5-3.3,1.2-5.2c0.2-0.6,0.9-2.1,1.9-4.6c1.1-2.4,2.5-5.7,4.4-10
			c-0.2-0.1-0.7-0.3-1.4-0.5c-0.7-0.2-1.7-0.6-2.9-1.1l-1.7,0c-0.2-0.5-0.5-1-0.9-1.3c-0.5-0.4-0.7-0.9-0.5-1.4
			c0.2-0.6,0.7-0.7,1.5-0.5c1,0.3,2.1,0.7,3.3,1c1.2,0.4,2.5,0.7,3.9,1.1l0-0.1c-0.1,0.2,0,0,0.2-0.5c0.2-0.5,0.5-1.4,1-2.7l0.1-1.1
			c0.4-0.5,0.9-0.7,1.5-0.5c0.5,0.2,1.2,0.9,2.2,2.2l-0.5,1.5c-0.1,0.2-0.3,0.6-0.5,1c-0.2,0.4-0.5,0.9-0.9,1.5l1,0.4
			c0.7,0.2,1.3,0.4,1.9,0.6s1,0.4,1.4,0.5c0.2,0.1,1,0.4,2.3,0.9c1.3,0.5,3.2,1.1,5.6,2l-0.3,0.9L20.6,578.4z"/>
	</g>
	<g class="st12">
		<path d="M23.7,597.3c-0.1,0.3-0.5,1-1.3,2.1c-0.1,0.2-0.3,0.5-0.7,1c-0.3,0.5-0.8,1.2-1.3,2c-0.6,0.9-1.3,1.5-2,1.9l0,0
			c-0.4,0.2-0.8,0.3-1.3,0.3c-0.3,2.6-0.7,4.7-1.2,6.2c-1.1,3.1-2.2,5.2-3.4,6.3c-0.3,0.2-0.7,0.3-1.2,0.1c-1.8-0.6-2-3-0.6-7.2
			l0.2-0.4c1.4-4.1,3-8.3,4.9-12.7s4-9,6.5-13.9c0.4-0.2,0.9-0.2,1.4,0c0.5,0.2,0.8,0.5,1.1,1.1c-0.9,0.6-1.6,1.6-2.2,2.7
			c-1.3,2.5-2.5,4.8-3.6,7c-1,2.1-1.9,4.1-2.7,5.9c0.4,0.3,0.7,0.8,0.8,1.5l0,0c0,0.1,0,0.2,0,0.5c0,0.3,0,0.7,0.1,1.2
			c0.4,0.1,1.1-0.4,2-1.5l0,0c0.3-0.4,0.7-1,1.3-1.8c0.5-0.8,1.2-1.8,2-3.1l0,0c0.3-0.4,0.5-0.6,0.9-0.5
			C23.8,596.4,23.9,596.7,23.7,597.3z M14.4,611c0.9-2.7,1.3-4.9,1.3-6.8c-0.1-0.1-0.2-0.2-0.2-0.3c-0.1-0.1-0.2-0.3-0.3-0.6
			c-0.6,1.5-1.2,2.9-1.6,4c-0.4,1.2-0.8,2.1-1.1,2.9c-0.1,0.4-0.3,0.8-0.4,1.3c-0.1,0.5-0.3,1.1-0.4,1.7l0,0c-0.2,1.5-0.2,2.4,0,2.4
			c0.2,0.1,0.7-0.6,1.4-1.9C13.8,612.7,14.2,611.8,14.4,611z"/>
		<path d="M31.6,600.1c-0.4,1.1-1,2.2-1.9,3.1c-1.1,1.2-2.1,1.6-3.1,1.3c-0.2-0.1-0.5-0.3-0.8-0.5c-0.1,0.1-0.3,0.4-0.5,0.9
			c0,0,0,0.1-0.1,0.1s-0.1,0.1-0.1,0.2c-0.8,1-1.3,1.6-1.7,1.9l0,0c-0.8,0.6-1.5,0.8-2.2,0.5c-1.8-0.6-2.1-2.6-0.9-6
			c0.6-1.9,1.3-3.2,1.9-4c0.1-0.3,0.1-0.6,0.2-0.8c0.2-0.3,0.3-0.4,0.4-0.5c0.1-0.1,0.1-0.2,0.2-0.3c0.1-0.1,0.2-0.3,0.3-0.5
			l0.2-0.3c0.5-0.8,1.2-1.1,1.9-0.9c0.6,0.2,1.2,0.7,1.7,1.4c0.5,0.8,0.7,1.5,0.7,2.1c0,0.7-0.4,2.3-1.3,4.7
			c0.1,0.2,0.2,0.3,0.4,0.4c0.6,0.2,1.2,0,1.7-0.6c0.3-0.3,0.8-1,1.5-2.3c0.3-0.5,0.6-0.7,1-0.6C31.6,599.4,31.7,599.7,31.6,600.1z
			 M24.5,603c0.1-0.2,0.1-0.5,0.2-0.9c0.1-0.3,0.1-0.8,0.2-1.2c0.1-0.5,0.1-0.9,0.2-1.3c0.1-0.4,0.2-0.7,0.3-0.9
			c0.1-0.4,0.2-0.6,0.3-0.7c0.1-0.2,0.2-0.4,0.2-0.5c0-0.1,0.1-0.2,0.1-0.1c0.2-0.5,0.1-0.9-0.4-1c-0.3-0.1-0.9,0.8-1.9,2.5
			c-0.5,0.8-0.8,1.5-1.1,2.2c-0.3,0.6-0.5,1.1-0.6,1.6c-0.7,2.1-0.7,3.3,0,3.5c0.1,0,0.5-0.2,1-0.9C23.8,604.3,24.3,603.5,24.5,603z
			"/>
		<path d="M31.6,610.8c-0.8-0.3-1.3-0.9-1.5-1.9c-0.1-0.4,0-1.2,0.4-2.3c0.1-0.3,0.1-0.5,0.2-0.7c0.1-0.2,0.1-0.4,0.2-0.6
			c0.1-0.2,0.1-0.4,0.2-0.6c0.1-0.3,0.2-0.7,0.4-1.1l0.9-2.6c0.1-0.3-0.1-0.7-0.6-1.4c-0.5,0.9-1.1,1.8-1.8,2.8l0-0.1
			c-0.1,0-0.2,0.2-0.4,0.5c-0.1,0-0.2,0.2-0.4,0.4l-0.7-0.6c0.2-0.5,0.6-1.2,1.2-2.2c0.3-0.5,0.5-0.9,0.7-1.3
			c0.2-0.4,0.3-0.7,0.4-0.9c0.1-0.2,0.1-0.5,0.1-1.1c0-0.5,0.1-1,0.2-1.3c0.4-1.3,1-1.8,1.8-1.6c0.7,0.2,0.8,0.8,0.5,1.7l-0.1,0.2
			c-0.1,0.4-0.2,0.6-0.3,0.7l0,0.1l-0.4,1c0,0,0.3,0.4,0.9,1.2c0.8,0.9,1.1,1.8,0.8,2.5c-0.1,0.4-0.3,0.8-0.5,1.3
			c-0.2,0.5-0.5,1.1-0.8,1.8c-0.3,0.7-0.6,1.3-0.8,1.8c-0.2,0.5-0.4,0.9-0.5,1.3c-0.3,0.8-0.2,1.3,0.2,1.4c0.2,0.1,1.1-0.9,2.6-2.9
			c0.7-1,1.3-1.8,1.7-2.4c0.5-0.7,0.8-1.2,1-1.6c0.3-0.7,0.7-0.9,1.1-0.8c0.4,0.1,0.5,0.4,0.3,1c-0.3,0.9-1.3,2.4-3,4.7
			C33.6,609.9,32.3,611.1,31.6,610.8z"/>
	</g>
	<g class="st12">
		<path d="M61,603.3c-0.2,0.5-0.8,1.6-2,3.4c-0.2,0.3-0.5,0.9-1.1,1.7c-0.5,0.8-1.2,1.9-2.1,3.2c-1,1.5-2,2.5-3.2,3.1l0.1,0
			c-0.7,0.3-1.4,0.4-2.1,0.4c-0.5,4.2-1.1,7.6-1.9,10c-1.7,5.1-3.5,8.5-5.4,10.2c-0.4,0.4-1.1,0.4-1.9,0.1c-2.9-1-3.2-4.8-0.9-11.5
			l0.2-0.7c2.2-6.6,4.9-13.4,7.9-20.5c3-7.1,6.5-14.6,10.4-22.4c0.6-0.3,1.4-0.3,2.3,0.1c0.7,0.2,1.3,0.9,1.8,1.8
			c-1.4,1-2.6,2.5-3.6,4.4c-2.2,4-4.1,7.8-5.8,11.2c-1.7,3.5-3.1,6.6-4.3,9.6c0.6,0.5,1.1,1.3,1.2,2.4l-0.1,0c0,0.1,0,0.3,0,0.8
			c0,0.4,0,1.1,0.1,1.9c0.7,0.2,1.8-0.6,3.2-2.4l0,0.1c0.5-0.6,1.2-1.6,2.1-2.9s1.9-3,3.2-5l0,0.1c0.4-0.7,0.9-1,1.4-0.8
			C61.1,601.9,61.3,602.5,61,603.3z M46.1,625.5c1.5-4.3,2.2-7.9,2.1-11c-0.1-0.1-0.3-0.3-0.4-0.5c-0.1-0.2-0.3-0.5-0.5-0.9
			c-1,2.5-1.9,4.6-2.6,6.5c-0.7,1.9-1.3,3.4-1.7,4.7c-0.2,0.6-0.4,1.3-0.6,2.2c-0.2,0.8-0.4,1.7-0.6,2.7l0-0.1
			c-0.4,2.5-0.4,3.8,0,3.9c0.3,0.1,1.1-0.9,2.3-3C45,628.2,45.7,626.7,46.1,625.5z"/>
		<path d="M58.4,620.7c-2-0.7-3.1-2.6-3.1-5.7c0-2.3,0.3-4.6,1.1-7c3-8.7,6.7-16.2,11.2-22.2l-0.1,0c1.1-2.6,2.3-3.7,3.6-3.3
			c2.6,0.9,3.2,3.3,1.8,7.2c-1,3-2.8,6.4-5.2,10c-1.3,1.9-2.6,3.5-3.8,4.9c-1.2,1.4-2.4,2.6-3.6,3.5l0-0.1c-0.1,0.1-0.2,0.1-0.3,0.2
			c-0.1,0.1-0.2,0.2-0.4,0.3c-0.1,0-0.3,0.1-0.4,0.3c-0.3,0.2-0.5,0.5-0.6,0.8c-0.8,2.5-1,4.6-0.4,6.3c0.3,1.1,0.7,1.8,1.2,1.9
			c1,0.3,3.5-2.6,7.6-8.7c0.2-0.1,0.3-0.2,0.4-0.4l-0.1,0c0.2-0.3,0.4-0.7,0.7-1.1c0.2-0.4,0.5-0.9,0.9-1.4l0,0.1
			c0.6-0.9,1.1-1.3,1.7-1.1c0.7,0.2,0.8,0.8,0.5,1.7c-0.4,1.3-2.1,3.9-5,7.8C62.6,619.3,60,621.3,58.4,620.7z M69.9,590.3
			c0.6-1.6,0.9-2.8,0.9-3.4c-4.9,6.9-8.2,12.6-10,17.1c0.8-0.9,1.5-1.8,2.3-2.9s1.6-2.1,2.5-3.2C67.8,594.8,69.2,592.3,69.9,590.3z"
			/>
		<path d="M77.5,609.2c-0.3,1-1.8,3.3-4.3,6.9c-1.8,2.5-2.9,4.1-3.4,4.7c-1.3,1.5-2.6,2.1-3.7,1.7c-2.1-0.7-2.5-3-1.2-6.9
			c0.4-1.3,1.2-3.3,2.3-5.8c1.1-2.6,1.9-4.5,2.3-5.8c0.6-0.3,1.2-0.4,1.7-0.2c1.2,0.4,1.6,1,1.3,1.9l-1.8,3
			c-0.8,1.5-1.6,2.9-2.2,4.2c-0.6,1.3-1.1,2.5-1.5,3.6c-0.7,2-0.7,3.1-0.1,3.3c0.4,0.1,1.1-0.5,2.2-2l3.3-4.7
			c0.7-1.1,1.7-2.5,2.7-4.3c0.6-1,1.2-1.5,1.8-1.3C77.6,607.8,77.8,608.3,77.5,609.2z M78.1,593.8c-0.6,1.7-1.4,2.3-2.6,1.9
			c-0.7-0.2-1.1-0.7-1.4-1.4c-0.3-0.7-0.3-1.5-0.1-2.1c0.2-0.5,0.6-0.9,1.2-1.2c0.6-0.4,1.2-0.5,1.6-0.3
			C78.3,591.1,78.7,592.1,78.1,593.8z"/>
		<path d="M82.1,633.8c-0.4-0.2-1-0.6-1.8-1.3c-2.5-0.8-3.8-1.3-3.8-1.5c-0.1,0.2-0.2,0.5-0.3,0.9c-0.1,0.4-0.2,0.8-0.4,1.2
			c-0.1,0.4-0.3,0.8-0.4,1.2c-0.1,0.4-0.2,0.7-0.3,0.9c-1.2,3.6-2.5,6.2-3.9,7.7c-2,2.3-4.7,2.9-7.8,1.8c-2.2-0.7-4-2.3-5.3-4.7
			l0,0.1c-1.3-2.3-1.5-4.6-0.7-7.1c1.1-3.3,5.3-5,12.7-5.1c0.3,0,0.8,0,1.5,0.1c0.7,0,1.6,0.1,2.8,0.2c0-0.2,0.1-0.6,0.2-1
			c0.1-0.4,0.2-0.9,0.4-1.6c0.1-0.4,0.2-0.8,0.3-1.2c-1.4,1.2-2.5,1.7-3.4,1.4c-1.4-0.5-2.2-1.5-2.3-3.2c-0.2-1.3,0-2.7,0.5-4.3
			c0.8-2.5,2.4-5.5,4.8-9.2c2.7-4.1,4.7-5.9,5.9-5.5c0.9,0.3,1.7,1.5,2.5,3.5l0-0.1c0.7,1.9,1.6,3.3,2.7,4c-3.2,2.9-5.6,7-7.4,12.1
			c-0.4,1.2-0.9,3-1.4,5.3c1.9,0.4,3.6,0.8,5.1,1.4c1.9,0.6,2.6,1.6,2.2,2.9C84,633.9,83.3,634.2,82.1,633.8z M72.6,634.9
			c0.1-0.3,0.3-0.8,0.4-1.5c0.2-0.7,0.4-1.5,0.7-2.5c-1.9-0.6-3.4-0.9-4.6-0.8c-5.3,0.4-8.4,1.9-9.3,4.4c-0.5,1.5-0.3,3,0.6,4.5
			c0.8,1.5,2,2.5,3.4,3C67.6,643.3,70.5,640.9,72.6,634.9z M81.2,611.1c0.7-2,0.3-3.2-1.2-3.7c-0.2,0.3-1.2,1.6-2.9,4.2
			c-2.2,3.3-3.8,6.2-4.6,8.8c-0.7,1.9-0.7,3-0.2,3.2c0.9,0.3,2.6-1.4,5-5.2C79.3,615.1,80.7,612.7,81.2,611.1z"/>
		<path d="M99.6,624.7c-0.8,1.2-1.5,2.2-2,3c-0.5,0.8-1,1.3-1.3,1.7c-1.3,1.5-2.5,2-3.6,1.6c-2.4-0.8-3-3.4-1.7-7.7
			c0.2-0.5,0.4-1.2,0.7-2.1c0.3-0.9,0.7-2.1,1.1-3.5c-0.7,1.1-1.6,2.6-2.8,4.5c-1.2,1.9-2.6,4.3-4.3,7c-0.5,0.1-0.9,0.1-1.3,0
			c-1.7-0.6-1.6-3.9,0.5-9.9c1-2.9,2.8-7.1,5.6-12.6c1.4-2.8,2.6-5.2,3.5-7.3c0.9-2.1,1.7-3.9,2.2-5.4c0.1-0.2,0.1-0.4,0.2-0.7
			c0.1-0.3,0.1-0.6,0.2-0.9c0.7-0.7,1.5-0.9,2.5-0.6l0.2,0.1c1,0.3,1.4,1,1,2c-0.2,0.5-0.6,1.3-1.3,2.3l0-0.1
			c-0.3,0.4-0.5,0.8-0.7,1.1c-0.2,0.3-0.3,0.6-0.5,0.8c-2.6,5.1-4.8,9.4-6.5,13.1c-1.7,3.7-3,6.7-3.8,9.1l-0.9-0.3
			c0.6,0.2,0.9,0.6,0.7,1.2c0,0.3-0.1,0.8-0.4,1.6c2.7-3.7,5.4-8,8.1-12.8c0.6-1.2,1.4-1.6,2.2-1.3c0.5,0.2,1.2,1.1,2.2,2.7
			c-2.7,4.9-4.7,9-5.8,12.4c-0.9,2.5-0.9,3.9-0.2,4.2c0.7,0.2,2.4-1.7,5.2-5.9c0.5-0.8,1-1.5,1.5-2.2c0.5-0.7,0.9-1.5,1.4-2.2
			c0.6-1,1.2-1.4,1.7-1.2c0.7,0.2,0.9,0.7,0.6,1.5C103.8,618.4,102.3,620.6,99.6,624.7z"/>
		<path d="M121.4,612.7c-0.4,0.2-1.5,0.2-3.3-0.1c-1.6-0.3-2.7-0.5-3.2-0.7c-0.8-0.3-1.6-0.6-2.4-0.8s-1.5-0.5-2.2-0.8l-2.1-0.8
			c-1.4,2.6-2.5,5-3.4,7c-0.9,2-1.6,3.7-2.1,5.1c-0.5,1.5-0.9,2.8-1.3,3.8c-0.3,1-0.5,1.7-0.7,2.2c-0.4,1.9-0.4,2.9,0.1,3.1
			c1.1,0.4,3.7-2.7,7.7-9.2c1.1-1.8,1.9-2.5,2.4-2.4c0.7,0.2,0.9,0.8,0.6,1.7c-0.5,1.4-1.9,3.7-4.5,7c-3.2,4.3-5.7,6.2-7.3,5.7
			c-1.5-0.5-2.1-2.2-1.9-5.1c0.1-1.6,0.5-3.3,1.2-5.2c0.2-0.6,0.9-2.1,1.9-4.6c1.1-2.4,2.5-5.7,4.4-10c-0.2-0.1-0.7-0.3-1.4-0.5
			c-0.7-0.2-1.7-0.6-2.9-1.1l-1.7,0c-0.2-0.5-0.5-1-0.9-1.3c-0.5-0.4-0.7-0.9-0.5-1.4c0.2-0.6,0.7-0.7,1.5-0.5c1,0.3,2.1,0.7,3.3,1
			c1.2,0.4,2.5,0.7,3.9,1.1l0-0.1c-0.1,0.2,0,0,0.2-0.5c0.2-0.5,0.5-1.4,1-2.7l0.1-1.1c0.4-0.5,0.9-0.7,1.5-0.5
			c0.5,0.2,1.2,0.9,2.2,2.2l-0.5,1.5c-0.1,0.2-0.3,0.6-0.5,1s-0.5,0.9-0.9,1.5l1,0.4c0.7,0.2,1.3,0.4,1.9,0.6c0.5,0.2,1,0.4,1.4,0.5
			c0.2,0.1,1,0.4,2.3,0.9c1.3,0.5,3.2,1.1,5.6,2l-0.3,0.9L121.4,612.7z"/>
	</g>
</g>
</svg>
